<?xml version="1.0" standalone="no"?>
<!DOCTYPE svg PUBLIC "-//W3C//DTD SVG 20010904//EN"
 "http://www.w3.org/TR/2001/REC-SVG-20010904/DTD/svg10.dtd">
<svg version="1.0" xmlns="http://www.w3.org/2000/svg"
 width="260.000000pt" height="260.000000pt" viewBox="0 0 260.000000 260.000000"
 preserveAspectRatio="xMidYMid meet">
<metadata>
Created by potrace 1.11, written by Peter Selinger 2001-2013
</metadata>
<g transform="translate(0.000000,260.000000) scale(0.100000,-0.100000)"
fill="#000000" stroke="none">
<path d="M786 2191 c-2 -3 -3 -419 -3 -923 0 -666 3 -920 11 -927 22 -18 701
-1 701 18 0 2 11 4 25 7 61 10 172 77 238 143 67 67 130 170 136 222 1 14 5
29 9 35 10 17 7 213 -4 219 -5 4 -7 11 -3 16 6 11 -35 105 -73 163 -36 55
-111 115 -200 159 -71 35 -72 36 -49 50 84 55 173 192 180 277 2 25 7 57 11
72 4 15 4 32 0 38 -4 7 -9 34 -10 60 -4 69 -56 170 -120 235 -55 57 -160 115
-214 120 -15 1 -34 6 -42 11 -16 10 -587 15 -593 5z m527 -205 c160 -30 240
-121 231 -263 -8 -138 -106 -243 -255 -272 -77 -16 -286 -27 -297 -17 -2 2 -4
127 -5 277 -1 246 0 273 16 278 20 7 271 5 310 -3z m-28 -771 c110 -12 123
-14 179 -36 54 -20 137 -75 164 -108 19 -24 53 -90 58 -115 10 -42 4 -145 -11
-186 -41 -117 -147 -196 -290 -216 -38 -6 -387 -6 -392 0 -7 7 -7 651 0 663 6
9 203 8 292 -2z"/>
</g>
</svg>
